<mxfile host="app.diagrams.net" agent="Mozilla/5.0 (Macintosh; Intel Mac OS X 10_15_7) AppleWebKit/537.36 (KHTML, like Gecko) Chrome/127.0.0.0 Safari/537.36 Edg/127.0.0.0" version="24.7.6">
  <diagram name="Page-1" id="o0lK1oO0jUhWUyYiTEdb">
    <mxGraphModel dx="5807" dy="3215" grid="1" gridSize="10" guides="1" tooltips="1" connect="1" arrows="1" fold="1" page="1" pageScale="1" pageWidth="827" pageHeight="1169" math="0" shadow="0">
      <root>
        <mxCell id="0" />
        <mxCell id="1" parent="0" />
        <mxCell id="Op0vcqs114MaEeQkp1IP-7" style="rounded=0;orthogonalLoop=1;jettySize=auto;html=1;exitX=0;exitY=0.25;exitDx=0;exitDy=0;entryX=1;entryY=0.5;entryDx=0;entryDy=0;" edge="1" parent="1" source="Op0vcqs114MaEeQkp1IP-1" target="Op0vcqs114MaEeQkp1IP-5">
          <mxGeometry relative="1" as="geometry" />
        </mxCell>
        <mxCell id="Op0vcqs114MaEeQkp1IP-8" style="rounded=0;orthogonalLoop=1;jettySize=auto;html=1;exitX=1;exitY=0.5;exitDx=0;exitDy=0;entryX=0;entryY=0.5;entryDx=0;entryDy=0;" edge="1" parent="1" source="Op0vcqs114MaEeQkp1IP-1" target="Op0vcqs114MaEeQkp1IP-4">
          <mxGeometry relative="1" as="geometry" />
        </mxCell>
        <mxCell id="Op0vcqs114MaEeQkp1IP-16" style="rounded=0;orthogonalLoop=1;jettySize=auto;html=1;exitX=1;exitY=0.75;exitDx=0;exitDy=0;entryX=0;entryY=0.5;entryDx=0;entryDy=0;shape=link;strokeColor=default;width=2.3809523809523796;edgeStyle=orthogonalEdgeStyle;" edge="1" parent="1" source="Op0vcqs114MaEeQkp1IP-1" target="Op0vcqs114MaEeQkp1IP-11">
          <mxGeometry relative="1" as="geometry">
            <Array as="points" />
          </mxGeometry>
        </mxCell>
        <mxCell id="Op0vcqs114MaEeQkp1IP-21" style="rounded=0;orthogonalLoop=1;jettySize=auto;html=1;exitX=0;exitY=1;exitDx=0;exitDy=0;entryX=1;entryY=0;entryDx=0;entryDy=0;shape=link;width=-2.7272727272727275;" edge="1" parent="1" source="Op0vcqs114MaEeQkp1IP-1" target="Op0vcqs114MaEeQkp1IP-19">
          <mxGeometry relative="1" as="geometry" />
        </mxCell>
        <mxCell id="Op0vcqs114MaEeQkp1IP-94" style="edgeStyle=orthogonalEdgeStyle;rounded=0;orthogonalLoop=1;jettySize=auto;html=1;exitX=0.5;exitY=0;exitDx=0;exitDy=0;entryX=0.75;entryY=1;entryDx=0;entryDy=0;shape=link;width=2.7272727272727266;" edge="1" parent="1" source="Op0vcqs114MaEeQkp1IP-1" target="Op0vcqs114MaEeQkp1IP-90">
          <mxGeometry relative="1" as="geometry">
            <Array as="points">
              <mxPoint x="540" y="240" />
            </Array>
          </mxGeometry>
        </mxCell>
        <mxCell id="Op0vcqs114MaEeQkp1IP-129" style="rounded=0;orthogonalLoop=1;jettySize=auto;html=1;exitX=0.75;exitY=0;exitDx=0;exitDy=0;entryX=0;entryY=1;entryDx=0;entryDy=0;" edge="1" parent="1" source="Op0vcqs114MaEeQkp1IP-1" target="Op0vcqs114MaEeQkp1IP-128">
          <mxGeometry relative="1" as="geometry" />
        </mxCell>
        <mxCell id="Op0vcqs114MaEeQkp1IP-138" style="rounded=0;orthogonalLoop=1;jettySize=auto;html=1;exitX=1;exitY=1;exitDx=0;exitDy=0;entryX=0;entryY=0;entryDx=0;entryDy=0;shape=link;width=-2.7272727272727275;" edge="1" parent="1" source="Op0vcqs114MaEeQkp1IP-1" target="Op0vcqs114MaEeQkp1IP-110">
          <mxGeometry relative="1" as="geometry" />
        </mxCell>
        <mxCell id="Op0vcqs114MaEeQkp1IP-185" style="rounded=0;orthogonalLoop=1;jettySize=auto;html=1;exitX=0;exitY=0;exitDx=0;exitDy=0;entryX=1;entryY=1;entryDx=0;entryDy=0;shape=link;width=2.3809523809523796;" edge="1" parent="1" source="Op0vcqs114MaEeQkp1IP-1" target="Op0vcqs114MaEeQkp1IP-184">
          <mxGeometry relative="1" as="geometry" />
        </mxCell>
        <mxCell id="Op0vcqs114MaEeQkp1IP-191" style="rounded=0;orthogonalLoop=1;jettySize=auto;html=1;exitX=1;exitY=0;exitDx=0;exitDy=0;entryX=0;entryY=0.5;entryDx=0;entryDy=0;" edge="1" parent="1" source="Op0vcqs114MaEeQkp1IP-1" target="Op0vcqs114MaEeQkp1IP-190">
          <mxGeometry relative="1" as="geometry" />
        </mxCell>
        <mxCell id="Op0vcqs114MaEeQkp1IP-1" value="members" style="whiteSpace=wrap;html=1;aspect=fixed;fillColor=#d5e8d4;strokeColor=#82b366;" vertex="1" parent="1">
          <mxGeometry x="500" y="420" width="80" height="80" as="geometry" />
        </mxCell>
        <mxCell id="Op0vcqs114MaEeQkp1IP-2" value="MemberID" style="ellipse;whiteSpace=wrap;html=1;fillColor=#dae8fc;strokeColor=#6c8ebf;" vertex="1" parent="1">
          <mxGeometry x="390" y="320" width="126" height="40" as="geometry" />
        </mxCell>
        <mxCell id="Op0vcqs114MaEeQkp1IP-3" value="MemberName" style="ellipse;whiteSpace=wrap;html=1;fillColor=#dae8fc;strokeColor=#6c8ebf;" vertex="1" parent="1">
          <mxGeometry x="634" y="373" width="126" height="40" as="geometry" />
        </mxCell>
        <mxCell id="Op0vcqs114MaEeQkp1IP-4" value="MemberDesignation" style="ellipse;whiteSpace=wrap;html=1;fillColor=#dae8fc;strokeColor=#6c8ebf;" vertex="1" parent="1">
          <mxGeometry x="637" y="430" width="126" height="40" as="geometry" />
        </mxCell>
        <mxCell id="Op0vcqs114MaEeQkp1IP-58" style="edgeStyle=orthogonalEdgeStyle;rounded=0;orthogonalLoop=1;jettySize=auto;html=1;exitX=0;exitY=0.5;exitDx=0;exitDy=0;dashed=1;shape=link;fillColor=#ffe6cc;strokeColor=#d79b00;" edge="1" parent="1" source="Op0vcqs114MaEeQkp1IP-5" target="Op0vcqs114MaEeQkp1IP-56">
          <mxGeometry relative="1" as="geometry" />
        </mxCell>
        <mxCell id="Op0vcqs114MaEeQkp1IP-6" style="rounded=0;orthogonalLoop=1;jettySize=auto;html=1;exitX=0.25;exitY=0;exitDx=0;exitDy=0;entryX=0.659;entryY=1;entryDx=0;entryDy=0;entryPerimeter=0;" edge="1" parent="1" source="Op0vcqs114MaEeQkp1IP-1" target="Op0vcqs114MaEeQkp1IP-2">
          <mxGeometry relative="1" as="geometry" />
        </mxCell>
        <mxCell id="Op0vcqs114MaEeQkp1IP-10" style="rounded=0;orthogonalLoop=1;jettySize=auto;html=1;entryX=0.27;entryY=0.975;entryDx=0;entryDy=0;entryPerimeter=0;exitX=1;exitY=0.25;exitDx=0;exitDy=0;" edge="1" parent="1" source="Op0vcqs114MaEeQkp1IP-1" target="Op0vcqs114MaEeQkp1IP-3">
          <mxGeometry relative="1" as="geometry">
            <mxPoint x="580" y="420" as="sourcePoint" />
          </mxGeometry>
        </mxCell>
        <mxCell id="Op0vcqs114MaEeQkp1IP-14" style="rounded=0;orthogonalLoop=1;jettySize=auto;html=1;exitX=0;exitY=0;exitDx=0;exitDy=0;" edge="1" parent="1" source="Op0vcqs114MaEeQkp1IP-11" target="Op0vcqs114MaEeQkp1IP-12">
          <mxGeometry relative="1" as="geometry" />
        </mxCell>
        <mxCell id="Op0vcqs114MaEeQkp1IP-15" style="rounded=0;orthogonalLoop=1;jettySize=auto;html=1;exitX=1;exitY=0;exitDx=0;exitDy=0;entryX=0.5;entryY=1;entryDx=0;entryDy=0;" edge="1" parent="1" source="Op0vcqs114MaEeQkp1IP-11" target="Op0vcqs114MaEeQkp1IP-13">
          <mxGeometry relative="1" as="geometry" />
        </mxCell>
        <mxCell id="Op0vcqs114MaEeQkp1IP-171" style="edgeStyle=orthogonalEdgeStyle;rounded=0;orthogonalLoop=1;jettySize=auto;html=1;exitX=0.5;exitY=0;exitDx=0;exitDy=0;entryX=0.5;entryY=1;entryDx=0;entryDy=0;" edge="1" parent="1" source="Op0vcqs114MaEeQkp1IP-11" target="Op0vcqs114MaEeQkp1IP-172">
          <mxGeometry relative="1" as="geometry">
            <mxPoint x="917" y="340" as="targetPoint" />
          </mxGeometry>
        </mxCell>
        <mxCell id="Op0vcqs114MaEeQkp1IP-11" value="Designations" style="whiteSpace=wrap;html=1;aspect=fixed;fillColor=#ffe6cc;strokeColor=#d79b00;" vertex="1" parent="1">
          <mxGeometry x="877" y="440" width="80" height="80" as="geometry" />
        </mxCell>
        <mxCell id="Op0vcqs114MaEeQkp1IP-12" value="DesignationID" style="ellipse;whiteSpace=wrap;html=1;fillColor=#dae8fc;strokeColor=#6c8ebf;" vertex="1" parent="1">
          <mxGeometry x="760" y="350" width="126" height="40" as="geometry" />
        </mxCell>
        <mxCell id="Op0vcqs114MaEeQkp1IP-13" value="DesignationName" style="ellipse;whiteSpace=wrap;html=1;fillColor=#dae8fc;strokeColor=#6c8ebf;" vertex="1" parent="1">
          <mxGeometry x="940" y="350" width="126" height="40" as="geometry" />
        </mxCell>
        <mxCell id="Op0vcqs114MaEeQkp1IP-44" style="edgeStyle=orthogonalEdgeStyle;rounded=0;orthogonalLoop=1;jettySize=auto;html=1;exitX=-0.023;exitY=0.092;exitDx=0;exitDy=0;entryX=1;entryY=0.5;entryDx=0;entryDy=0;shape=link;width=-1.4285714285714288;exitPerimeter=0;" edge="1" parent="1" source="Op0vcqs114MaEeQkp1IP-19" target="Op0vcqs114MaEeQkp1IP-31">
          <mxGeometry relative="1" as="geometry" />
        </mxCell>
        <mxCell id="Op0vcqs114MaEeQkp1IP-46" style="rounded=0;orthogonalLoop=1;jettySize=auto;html=1;exitX=0.75;exitY=0;exitDx=0;exitDy=0;entryX=0.5;entryY=1;entryDx=0;entryDy=0;" edge="1" parent="1" source="Op0vcqs114MaEeQkp1IP-19" target="Op0vcqs114MaEeQkp1IP-29">
          <mxGeometry relative="1" as="geometry" />
        </mxCell>
        <mxCell id="Op0vcqs114MaEeQkp1IP-48" style="rounded=0;orthogonalLoop=1;jettySize=auto;html=1;exitX=0;exitY=0;exitDx=0;exitDy=0;entryX=1;entryY=0.5;entryDx=0;entryDy=0;" edge="1" parent="1" source="Op0vcqs114MaEeQkp1IP-19" target="Op0vcqs114MaEeQkp1IP-23">
          <mxGeometry relative="1" as="geometry" />
        </mxCell>
        <mxCell id="Op0vcqs114MaEeQkp1IP-49" style="rounded=0;orthogonalLoop=1;jettySize=auto;html=1;exitX=0;exitY=0.5;exitDx=0;exitDy=0;entryX=1;entryY=0.5;entryDx=0;entryDy=0;" edge="1" parent="1" source="Op0vcqs114MaEeQkp1IP-19" target="Op0vcqs114MaEeQkp1IP-26">
          <mxGeometry relative="1" as="geometry" />
        </mxCell>
        <mxCell id="Op0vcqs114MaEeQkp1IP-50" style="rounded=0;orthogonalLoop=1;jettySize=auto;html=1;exitX=0;exitY=1;exitDx=0;exitDy=0;entryX=1;entryY=0.5;entryDx=0;entryDy=0;" edge="1" parent="1" source="Op0vcqs114MaEeQkp1IP-19" target="Op0vcqs114MaEeQkp1IP-22">
          <mxGeometry relative="1" as="geometry" />
        </mxCell>
        <mxCell id="Op0vcqs114MaEeQkp1IP-51" style="rounded=0;orthogonalLoop=1;jettySize=auto;html=1;exitX=0.25;exitY=1;exitDx=0;exitDy=0;entryX=1;entryY=0.5;entryDx=0;entryDy=0;" edge="1" parent="1" source="Op0vcqs114MaEeQkp1IP-19" target="Op0vcqs114MaEeQkp1IP-24">
          <mxGeometry relative="1" as="geometry" />
        </mxCell>
        <mxCell id="Op0vcqs114MaEeQkp1IP-53" style="rounded=0;orthogonalLoop=1;jettySize=auto;html=1;exitX=0.75;exitY=1;exitDx=0;exitDy=0;entryX=0.5;entryY=0;entryDx=0;entryDy=0;" edge="1" parent="1" source="Op0vcqs114MaEeQkp1IP-19" target="Op0vcqs114MaEeQkp1IP-28">
          <mxGeometry relative="1" as="geometry" />
        </mxCell>
        <mxCell id="Op0vcqs114MaEeQkp1IP-55" style="rounded=0;orthogonalLoop=1;jettySize=auto;html=1;exitX=0.5;exitY=0;exitDx=0;exitDy=0;entryX=1;entryY=1;entryDx=0;entryDy=0;" edge="1" parent="1" source="Op0vcqs114MaEeQkp1IP-19" target="Op0vcqs114MaEeQkp1IP-54">
          <mxGeometry relative="1" as="geometry" />
        </mxCell>
        <mxCell id="Op0vcqs114MaEeQkp1IP-64" style="edgeStyle=orthogonalEdgeStyle;rounded=0;orthogonalLoop=1;jettySize=auto;html=1;exitX=-0.005;exitY=0.868;exitDx=0;exitDy=0;shape=link;width=-1.4893617021276597;exitPerimeter=0;entryX=0.373;entryY=-0.007;entryDx=0;entryDy=0;entryPerimeter=0;" edge="1" parent="1" source="Op0vcqs114MaEeQkp1IP-19" target="Op0vcqs114MaEeQkp1IP-59">
          <mxGeometry relative="1" as="geometry">
            <Array as="points">
              <mxPoint x="80" y="719" />
              <mxPoint x="80" y="949" />
            </Array>
          </mxGeometry>
        </mxCell>
        <mxCell id="Op0vcqs114MaEeQkp1IP-116" style="rounded=0;orthogonalLoop=1;jettySize=auto;html=1;exitX=1;exitY=1;exitDx=0;exitDy=0;entryX=0;entryY=0;entryDx=0;entryDy=0;shape=link;width=-2.1428571428571423;" edge="1" parent="1" source="Op0vcqs114MaEeQkp1IP-19" target="Op0vcqs114MaEeQkp1IP-115">
          <mxGeometry relative="1" as="geometry" />
        </mxCell>
        <mxCell id="Op0vcqs114MaEeQkp1IP-143" style="rounded=0;orthogonalLoop=1;jettySize=auto;html=1;exitX=1;exitY=0.5;exitDx=0;exitDy=0;entryX=0;entryY=0.5;entryDx=0;entryDy=0;" edge="1" parent="1" source="Op0vcqs114MaEeQkp1IP-19" target="Op0vcqs114MaEeQkp1IP-141">
          <mxGeometry relative="1" as="geometry" />
        </mxCell>
        <mxCell id="Op0vcqs114MaEeQkp1IP-180" style="rounded=0;orthogonalLoop=1;jettySize=auto;html=1;exitX=0.25;exitY=0;exitDx=0;exitDy=0;entryX=1;entryY=0.5;entryDx=0;entryDy=0;" edge="1" parent="1" source="Op0vcqs114MaEeQkp1IP-19" target="Op0vcqs114MaEeQkp1IP-160">
          <mxGeometry relative="1" as="geometry" />
        </mxCell>
        <mxCell id="Op0vcqs114MaEeQkp1IP-19" value="Tasks" style="whiteSpace=wrap;html=1;aspect=fixed;fillColor=#d5e8d4;strokeColor=#82b366;" vertex="1" parent="1">
          <mxGeometry x="280" y="650" width="80" height="80" as="geometry" />
        </mxCell>
        <mxCell id="Op0vcqs114MaEeQkp1IP-20" value="TaskName" style="ellipse;whiteSpace=wrap;html=1;fillColor=#dae8fc;strokeColor=#6c8ebf;" vertex="1" parent="1">
          <mxGeometry x="130" y="510" width="126" height="40" as="geometry" />
        </mxCell>
        <mxCell id="Op0vcqs114MaEeQkp1IP-22" value="TaskStatus" style="ellipse;whiteSpace=wrap;html=1;fillColor=#dae8fc;strokeColor=#6c8ebf;" vertex="1" parent="1">
          <mxGeometry x="90" y="730" width="126" height="40" as="geometry" />
        </mxCell>
        <mxCell id="Op0vcqs114MaEeQkp1IP-23" value="TaskDescription" style="ellipse;whiteSpace=wrap;html=1;fillColor=#dae8fc;strokeColor=#6c8ebf;" vertex="1" parent="1">
          <mxGeometry x="90" y="610" width="126" height="40" as="geometry" />
        </mxCell>
        <mxCell id="Op0vcqs114MaEeQkp1IP-24" value="TaskPriority" style="ellipse;whiteSpace=wrap;html=1;fillColor=#dae8fc;strokeColor=#6c8ebf;" vertex="1" parent="1">
          <mxGeometry x="124" y="790" width="126" height="40" as="geometry" />
        </mxCell>
        <mxCell id="Op0vcqs114MaEeQkp1IP-27" value="StartDate" style="ellipse;whiteSpace=wrap;html=1;fillColor=#dae8fc;strokeColor=#6c8ebf;" vertex="1" parent="1">
          <mxGeometry x="184" y="855" width="126" height="40" as="geometry" />
        </mxCell>
        <mxCell id="Op0vcqs114MaEeQkp1IP-28" value="DueDate" style="ellipse;whiteSpace=wrap;html=1;fillColor=#dae8fc;strokeColor=#6c8ebf;" vertex="1" parent="1">
          <mxGeometry x="294" y="805" width="126" height="40" as="geometry" />
        </mxCell>
        <mxCell id="Op0vcqs114MaEeQkp1IP-29" value="TaskID" style="ellipse;whiteSpace=wrap;html=1;fillColor=#dae8fc;strokeColor=#6c8ebf;" vertex="1" parent="1">
          <mxGeometry x="294" y="530" width="126" height="40" as="geometry" />
        </mxCell>
        <mxCell id="Op0vcqs114MaEeQkp1IP-40" style="rounded=0;orthogonalLoop=1;jettySize=auto;html=1;exitX=0.25;exitY=0;exitDx=0;exitDy=0;entryX=1;entryY=1;entryDx=0;entryDy=0;" edge="1" parent="1" source="Op0vcqs114MaEeQkp1IP-31" target="Op0vcqs114MaEeQkp1IP-35">
          <mxGeometry relative="1" as="geometry" />
        </mxCell>
        <mxCell id="Op0vcqs114MaEeQkp1IP-41" style="rounded=0;orthogonalLoop=1;jettySize=auto;html=1;exitX=0;exitY=0;exitDx=0;exitDy=0;" edge="1" parent="1" source="Op0vcqs114MaEeQkp1IP-31" target="Op0vcqs114MaEeQkp1IP-34">
          <mxGeometry relative="1" as="geometry" />
        </mxCell>
        <mxCell id="Op0vcqs114MaEeQkp1IP-31" value="TaskStatus" style="whiteSpace=wrap;html=1;aspect=fixed;fillColor=#ffe6cc;strokeColor=#d79b00;" vertex="1" parent="1">
          <mxGeometry x="-200" y="560" width="80" height="80" as="geometry" />
        </mxCell>
        <mxCell id="Op0vcqs114MaEeQkp1IP-42" style="rounded=0;orthogonalLoop=1;jettySize=auto;html=1;exitX=0;exitY=1;exitDx=0;exitDy=0;entryX=1;entryY=0.5;entryDx=0;entryDy=0;" edge="1" parent="1" source="Op0vcqs114MaEeQkp1IP-32" target="Op0vcqs114MaEeQkp1IP-38">
          <mxGeometry relative="1" as="geometry" />
        </mxCell>
        <mxCell id="Op0vcqs114MaEeQkp1IP-32" value="Priority" style="whiteSpace=wrap;html=1;aspect=fixed;fillColor=#ffe6cc;strokeColor=#d79b00;" vertex="1" parent="1">
          <mxGeometry x="-200" y="740" width="80" height="80" as="geometry" />
        </mxCell>
        <mxCell id="Op0vcqs114MaEeQkp1IP-34" value="StatusName" style="ellipse;whiteSpace=wrap;html=1;fillColor=#dae8fc;strokeColor=#6c8ebf;" vertex="1" parent="1">
          <mxGeometry x="-380" y="540" width="126" height="40" as="geometry" />
        </mxCell>
        <mxCell id="Op0vcqs114MaEeQkp1IP-35" value="StatusID" style="ellipse;whiteSpace=wrap;html=1;fillColor=#dae8fc;strokeColor=#6c8ebf;" vertex="1" parent="1">
          <mxGeometry x="-300" y="490" width="126" height="40" as="geometry" />
        </mxCell>
        <mxCell id="Op0vcqs114MaEeQkp1IP-38" value="PriorityID" style="ellipse;whiteSpace=wrap;html=1;fillColor=#dae8fc;strokeColor=#6c8ebf;" vertex="1" parent="1">
          <mxGeometry x="-380" y="805" width="126" height="40" as="geometry" />
        </mxCell>
        <mxCell id="Op0vcqs114MaEeQkp1IP-39" value="PriorityName" style="ellipse;whiteSpace=wrap;html=1;fillColor=#dae8fc;strokeColor=#6c8ebf;" vertex="1" parent="1">
          <mxGeometry x="-300" y="855" width="126" height="40" as="geometry" />
        </mxCell>
        <mxCell id="Op0vcqs114MaEeQkp1IP-43" style="rounded=0;orthogonalLoop=1;jettySize=auto;html=1;exitX=0.25;exitY=1;exitDx=0;exitDy=0;entryX=0.957;entryY=0.331;entryDx=0;entryDy=0;entryPerimeter=0;" edge="1" parent="1" source="Op0vcqs114MaEeQkp1IP-32" target="Op0vcqs114MaEeQkp1IP-39">
          <mxGeometry relative="1" as="geometry" />
        </mxCell>
        <mxCell id="Op0vcqs114MaEeQkp1IP-45" style="edgeStyle=orthogonalEdgeStyle;rounded=0;orthogonalLoop=1;jettySize=auto;html=1;exitX=0.001;exitY=0.866;exitDx=0;exitDy=0;entryX=1.001;entryY=0.622;entryDx=0;entryDy=0;entryPerimeter=0;shape=link;width=-1.4285714285714288;exitPerimeter=0;" edge="1" parent="1" source="Op0vcqs114MaEeQkp1IP-19" target="Op0vcqs114MaEeQkp1IP-32">
          <mxGeometry relative="1" as="geometry" />
        </mxCell>
        <mxCell id="Op0vcqs114MaEeQkp1IP-47" style="rounded=0;orthogonalLoop=1;jettySize=auto;html=1;exitX=0.25;exitY=0;exitDx=0;exitDy=0;entryX=0.958;entryY=0.775;entryDx=0;entryDy=0;entryPerimeter=0;" edge="1" parent="1" source="Op0vcqs114MaEeQkp1IP-19" target="Op0vcqs114MaEeQkp1IP-20">
          <mxGeometry relative="1" as="geometry" />
        </mxCell>
        <mxCell id="Op0vcqs114MaEeQkp1IP-52" style="rounded=0;orthogonalLoop=1;jettySize=auto;html=1;exitX=0.5;exitY=1;exitDx=0;exitDy=0;entryX=0.688;entryY=0.008;entryDx=0;entryDy=0;entryPerimeter=0;" edge="1" parent="1" source="Op0vcqs114MaEeQkp1IP-19" target="Op0vcqs114MaEeQkp1IP-27">
          <mxGeometry relative="1" as="geometry" />
        </mxCell>
        <mxCell id="Op0vcqs114MaEeQkp1IP-54" value="ProjectID" style="ellipse;whiteSpace=wrap;html=1;fillColor=#dae8fc;strokeColor=#6c8ebf;" vertex="1" parent="1">
          <mxGeometry x="216" y="470" width="126" height="40" as="geometry" />
        </mxCell>
        <mxCell id="Op0vcqs114MaEeQkp1IP-56" value="" style="shadow=0;dashed=0;html=1;strokeColor=none;fillColor=#4495D1;labelPosition=center;verticalLabelPosition=bottom;verticalAlign=top;align=center;outlineConnect=0;shape=mxgraph.veeam.2d.file_system_browser;" vertex="1" parent="1">
          <mxGeometry x="-70" y="367.6" width="134.8" height="122.4" as="geometry" />
        </mxCell>
        <mxCell id="Op0vcqs114MaEeQkp1IP-67" style="rounded=0;orthogonalLoop=1;jettySize=auto;html=1;exitX=0;exitY=1;exitDx=0;exitDy=0;" edge="1" parent="1" source="Op0vcqs114MaEeQkp1IP-59" target="Op0vcqs114MaEeQkp1IP-61">
          <mxGeometry relative="1" as="geometry" />
        </mxCell>
        <mxCell id="Op0vcqs114MaEeQkp1IP-59" value="Subtasks" style="whiteSpace=wrap;html=1;aspect=fixed;fillColor=#ffe6cc;strokeColor=#d79b00;" vertex="1" parent="1">
          <mxGeometry x="49.99999999999998" y="950" width="80" height="80" as="geometry" />
        </mxCell>
        <mxCell id="Op0vcqs114MaEeQkp1IP-60" value="SubtaskID" style="ellipse;whiteSpace=wrap;html=1;fillColor=#dae8fc;strokeColor=#6c8ebf;" vertex="1" parent="1">
          <mxGeometry x="-120" y="940" width="126" height="40" as="geometry" />
        </mxCell>
        <mxCell id="Op0vcqs114MaEeQkp1IP-61" value="SubtaskDescription" style="ellipse;whiteSpace=wrap;html=1;fillColor=#dae8fc;strokeColor=#6c8ebf;" vertex="1" parent="1">
          <mxGeometry x="-150" y="1030" width="126" height="40" as="geometry" />
        </mxCell>
        <mxCell id="Op0vcqs114MaEeQkp1IP-62" value="TaskID" style="ellipse;whiteSpace=wrap;html=1;fillColor=#dae8fc;strokeColor=#6c8ebf;" vertex="1" parent="1">
          <mxGeometry x="-15.999999999999986" y="1090" width="126" height="40" as="geometry" />
        </mxCell>
        <mxCell id="Op0vcqs114MaEeQkp1IP-65" style="rounded=0;orthogonalLoop=1;jettySize=auto;html=1;exitX=0;exitY=0.25;exitDx=0;exitDy=0;entryX=0.96;entryY=0.686;entryDx=0;entryDy=0;entryPerimeter=0;" edge="1" parent="1" source="Op0vcqs114MaEeQkp1IP-59" target="Op0vcqs114MaEeQkp1IP-60">
          <mxGeometry relative="1" as="geometry" />
        </mxCell>
        <mxCell id="Op0vcqs114MaEeQkp1IP-68" style="rounded=0;orthogonalLoop=1;jettySize=auto;html=1;exitX=0.25;exitY=1;exitDx=0;exitDy=0;entryX=0.667;entryY=0.043;entryDx=0;entryDy=0;entryPerimeter=0;" edge="1" parent="1" source="Op0vcqs114MaEeQkp1IP-59" target="Op0vcqs114MaEeQkp1IP-62">
          <mxGeometry relative="1" as="geometry" />
        </mxCell>
        <mxCell id="Op0vcqs114MaEeQkp1IP-81" style="rounded=0;orthogonalLoop=1;jettySize=auto;html=1;exitX=1;exitY=0.25;exitDx=0;exitDy=0;entryX=0;entryY=0.5;entryDx=0;entryDy=0;" edge="1" parent="1" source="Op0vcqs114MaEeQkp1IP-70" target="Op0vcqs114MaEeQkp1IP-76">
          <mxGeometry relative="1" as="geometry" />
        </mxCell>
        <mxCell id="Op0vcqs114MaEeQkp1IP-82" style="rounded=0;orthogonalLoop=1;jettySize=auto;html=1;exitX=1;exitY=0.75;exitDx=0;exitDy=0;entryX=0;entryY=0.5;entryDx=0;entryDy=0;" edge="1" parent="1" source="Op0vcqs114MaEeQkp1IP-70" target="Op0vcqs114MaEeQkp1IP-71">
          <mxGeometry relative="1" as="geometry" />
        </mxCell>
        <mxCell id="Op0vcqs114MaEeQkp1IP-83" style="rounded=0;orthogonalLoop=1;jettySize=auto;html=1;exitX=1;exitY=1;exitDx=0;exitDy=0;entryX=0;entryY=0.5;entryDx=0;entryDy=0;" edge="1" parent="1" source="Op0vcqs114MaEeQkp1IP-70" target="Op0vcqs114MaEeQkp1IP-75">
          <mxGeometry relative="1" as="geometry" />
        </mxCell>
        <mxCell id="Op0vcqs114MaEeQkp1IP-84" style="rounded=0;orthogonalLoop=1;jettySize=auto;html=1;exitX=1;exitY=1;exitDx=0;exitDy=0;entryX=0.5;entryY=0;entryDx=0;entryDy=0;" edge="1" parent="1" source="Op0vcqs114MaEeQkp1IP-70" target="Op0vcqs114MaEeQkp1IP-72">
          <mxGeometry relative="1" as="geometry" />
        </mxCell>
        <mxCell id="Op0vcqs114MaEeQkp1IP-70" value="TaskUpdates" style="whiteSpace=wrap;html=1;aspect=fixed;fillColor=#ffe6cc;strokeColor=#d79b00;" vertex="1" parent="1">
          <mxGeometry x="249.99999999999997" y="910" width="80" height="80" as="geometry" />
        </mxCell>
        <mxCell id="Op0vcqs114MaEeQkp1IP-72" value="UpdateID" style="ellipse;whiteSpace=wrap;html=1;fillColor=#dae8fc;strokeColor=#6c8ebf;" vertex="1" parent="1">
          <mxGeometry x="280" y="1040" width="126" height="40" as="geometry" />
        </mxCell>
        <mxCell id="Op0vcqs114MaEeQkp1IP-75" value="TaskID" style="ellipse;whiteSpace=wrap;html=1;fillColor=#dae8fc;strokeColor=#6c8ebf;" vertex="1" parent="1">
          <mxGeometry x="388" y="990" width="126" height="40" as="geometry" />
        </mxCell>
        <mxCell id="Op0vcqs114MaEeQkp1IP-76" value="UpdateDescription" style="ellipse;whiteSpace=wrap;html=1;fillColor=#dae8fc;strokeColor=#6c8ebf;" vertex="1" parent="1">
          <mxGeometry x="370" y="870" width="126" height="40" as="geometry" />
        </mxCell>
        <mxCell id="Op0vcqs114MaEeQkp1IP-78" value="" style="group" vertex="1" connectable="0" parent="1">
          <mxGeometry x="380" y="910" width="175" height="60" as="geometry" />
        </mxCell>
        <mxCell id="Op0vcqs114MaEeQkp1IP-71" value="UpdateBy" style="ellipse;whiteSpace=wrap;html=1;fillColor=#dae8fc;strokeColor=#6c8ebf;" vertex="1" parent="Op0vcqs114MaEeQkp1IP-78">
          <mxGeometry y="20" width="126" height="40" as="geometry" />
        </mxCell>
        <mxCell id="Op0vcqs114MaEeQkp1IP-77" value="&lt;span style=&quot;color: rgb(0, 0, 0); font-family: Helvetica; font-size: 12px; font-style: normal; font-variant-ligatures: normal; font-variant-caps: normal; font-weight: 400; letter-spacing: normal; orphans: 2; text-align: center; text-indent: 0px; text-transform: none; widows: 2; word-spacing: 0px; -webkit-text-stroke-width: 0px; white-space: normal; background-color: rgb(251, 251, 251); text-decoration-thickness: initial; text-decoration-style: initial; text-decoration-color: initial; display: inline !important; float: none;&quot;&gt;MemberID&lt;/span&gt;" style="text;whiteSpace=wrap;html=1;" vertex="1" parent="Op0vcqs114MaEeQkp1IP-78">
          <mxGeometry x="85" width="90" height="40" as="geometry" />
        </mxCell>
        <mxCell id="Op0vcqs114MaEeQkp1IP-80" value="" style="endArrow=none;html=1;rounded=0;shape=link;entryX=-0.005;entryY=0.116;entryDx=0;entryDy=0;entryPerimeter=0;width=-1.7073170731707314;" edge="1" parent="1" target="Op0vcqs114MaEeQkp1IP-70">
          <mxGeometry width="50" height="50" relative="1" as="geometry">
            <mxPoint x="80" y="920" as="sourcePoint" />
            <mxPoint x="230" y="800" as="targetPoint" />
          </mxGeometry>
        </mxCell>
        <mxCell id="Op0vcqs114MaEeQkp1IP-87" style="edgeStyle=orthogonalEdgeStyle;rounded=0;orthogonalLoop=1;jettySize=auto;html=1;exitX=0;exitY=0;exitDx=0;exitDy=0;dashed=1;shape=link;fillColor=#ffe6cc;strokeColor=#d79b00;" edge="1" parent="1" source="Op0vcqs114MaEeQkp1IP-85" target="Op0vcqs114MaEeQkp1IP-56">
          <mxGeometry relative="1" as="geometry">
            <Array as="points">
              <mxPoint x="173" y="850" />
              <mxPoint x="-3" y="850" />
            </Array>
          </mxGeometry>
        </mxCell>
        <mxCell id="Op0vcqs114MaEeQkp1IP-85" value="DocumentURI" style="ellipse;whiteSpace=wrap;html=1;fillColor=#dae8fc;strokeColor=#6c8ebf;" vertex="1" parent="1">
          <mxGeometry x="154" y="1030" width="126" height="40" as="geometry" />
        </mxCell>
        <mxCell id="Op0vcqs114MaEeQkp1IP-86" style="rounded=0;orthogonalLoop=1;jettySize=auto;html=1;exitX=0;exitY=1;exitDx=0;exitDy=0;entryX=0.679;entryY=0.101;entryDx=0;entryDy=0;entryPerimeter=0;" edge="1" parent="1" source="Op0vcqs114MaEeQkp1IP-70" target="Op0vcqs114MaEeQkp1IP-85">
          <mxGeometry relative="1" as="geometry" />
        </mxCell>
        <mxCell id="Op0vcqs114MaEeQkp1IP-88" value="" style="group" vertex="1" connectable="0" parent="1">
          <mxGeometry x="250" y="380" width="230" height="70" as="geometry" />
        </mxCell>
        <mxCell id="Op0vcqs114MaEeQkp1IP-5" value="MemberDocumentsURI" style="ellipse;whiteSpace=wrap;html=1;fillColor=#dae8fc;strokeColor=#6c8ebf;" vertex="1" parent="Op0vcqs114MaEeQkp1IP-88">
          <mxGeometry x="40" y="30" width="146" height="40" as="geometry" />
        </mxCell>
        <mxCell id="Op0vcqs114MaEeQkp1IP-18" value="&lt;span style=&quot;color: rgb(0, 0, 0); font-family: Helvetica; font-size: 12px; font-style: normal; font-variant-ligatures: normal; font-variant-caps: normal; font-weight: 400; letter-spacing: normal; orphans: 2; text-align: center; text-indent: 0px; text-transform: none; widows: 2; word-spacing: 0px; -webkit-text-stroke-width: 0px; white-space: normal; background-color: rgb(251, 251, 251); text-decoration-thickness: initial; text-decoration-style: initial; text-decoration-color: initial; display: inline !important; float: none;&quot;&gt;Points to DocumentStorage location/ URI&lt;/span&gt;" style="text;whiteSpace=wrap;html=1;" vertex="1" parent="Op0vcqs114MaEeQkp1IP-88">
          <mxGeometry x="-30" width="230" height="40" as="geometry" />
        </mxCell>
        <mxCell id="Op0vcqs114MaEeQkp1IP-89" value="" style="group" vertex="1" connectable="0" parent="1">
          <mxGeometry x="20" y="660" width="176" height="50" as="geometry" />
        </mxCell>
        <mxCell id="Op0vcqs114MaEeQkp1IP-26" value="AssignedTo" style="ellipse;whiteSpace=wrap;html=1;fillColor=#dae8fc;strokeColor=#6c8ebf;" vertex="1" parent="Op0vcqs114MaEeQkp1IP-89">
          <mxGeometry x="50" y="10" width="126" height="40" as="geometry" />
        </mxCell>
        <mxCell id="Op0vcqs114MaEeQkp1IP-30" value="&lt;span style=&quot;color: rgb(0, 0, 0); font-family: Helvetica; font-size: 12px; font-style: normal; font-variant-ligatures: normal; font-variant-caps: normal; font-weight: 400; letter-spacing: normal; orphans: 2; text-align: center; text-indent: 0px; text-transform: none; widows: 2; word-spacing: 0px; -webkit-text-stroke-width: 0px; white-space: normal; background-color: rgb(251, 251, 251); text-decoration-thickness: initial; text-decoration-style: initial; text-decoration-color: initial; display: inline !important; float: none;&quot;&gt;MemberID&lt;/span&gt;" style="text;whiteSpace=wrap;html=1;" vertex="1" parent="Op0vcqs114MaEeQkp1IP-89">
          <mxGeometry width="90" height="40" as="geometry" />
        </mxCell>
        <mxCell id="Op0vcqs114MaEeQkp1IP-95" style="rounded=0;orthogonalLoop=1;jettySize=auto;html=1;exitX=0;exitY=0;exitDx=0;exitDy=0;" edge="1" parent="1" source="Op0vcqs114MaEeQkp1IP-90" target="Op0vcqs114MaEeQkp1IP-92">
          <mxGeometry relative="1" as="geometry" />
        </mxCell>
        <mxCell id="Op0vcqs114MaEeQkp1IP-97" style="rounded=0;orthogonalLoop=1;jettySize=auto;html=1;exitX=1;exitY=0;exitDx=0;exitDy=0;entryX=0;entryY=0.5;entryDx=0;entryDy=0;" edge="1" parent="1" source="Op0vcqs114MaEeQkp1IP-90" target="Op0vcqs114MaEeQkp1IP-93">
          <mxGeometry relative="1" as="geometry" />
        </mxCell>
        <mxCell id="Op0vcqs114MaEeQkp1IP-90" value="Self-improvement&amp;nbsp; Resolution" style="whiteSpace=wrap;html=1;aspect=fixed;fillColor=#ffe6cc;strokeColor=#d79b00;" vertex="1" parent="1">
          <mxGeometry x="480" y="160" width="80" height="80" as="geometry" />
        </mxCell>
        <mxCell id="Op0vcqs114MaEeQkp1IP-91" value="MemberID" style="ellipse;whiteSpace=wrap;html=1;fillColor=#dae8fc;strokeColor=#6c8ebf;" vertex="1" parent="1">
          <mxGeometry x="457" y="70" width="126" height="40" as="geometry" />
        </mxCell>
        <mxCell id="Op0vcqs114MaEeQkp1IP-92" value="Date" style="ellipse;whiteSpace=wrap;html=1;fillColor=#dae8fc;strokeColor=#6c8ebf;" vertex="1" parent="1">
          <mxGeometry x="350" y="120" width="126" height="40" as="geometry" />
        </mxCell>
        <mxCell id="Op0vcqs114MaEeQkp1IP-93" value="Resolution" style="ellipse;whiteSpace=wrap;html=1;fillColor=#dae8fc;strokeColor=#6c8ebf;" vertex="1" parent="1">
          <mxGeometry x="580" y="130" width="126" height="40" as="geometry" />
        </mxCell>
        <mxCell id="Op0vcqs114MaEeQkp1IP-96" style="rounded=0;orthogonalLoop=1;jettySize=auto;html=1;exitX=0.5;exitY=0;exitDx=0;exitDy=0;entryX=0.5;entryY=1;entryDx=0;entryDy=0;" edge="1" parent="1" source="Op0vcqs114MaEeQkp1IP-90" target="Op0vcqs114MaEeQkp1IP-91">
          <mxGeometry relative="1" as="geometry" />
        </mxCell>
        <mxCell id="Op0vcqs114MaEeQkp1IP-103" style="rounded=0;orthogonalLoop=1;jettySize=auto;html=1;exitX=0;exitY=0.5;exitDx=0;exitDy=0;entryX=1;entryY=0.5;entryDx=0;entryDy=0;" edge="1" parent="1" source="Op0vcqs114MaEeQkp1IP-99" target="Op0vcqs114MaEeQkp1IP-100">
          <mxGeometry relative="1" as="geometry" />
        </mxCell>
        <mxCell id="Op0vcqs114MaEeQkp1IP-105" style="rounded=0;orthogonalLoop=1;jettySize=auto;html=1;entryX=0.5;entryY=0;entryDx=0;entryDy=0;" edge="1" parent="1" source="Op0vcqs114MaEeQkp1IP-99" target="Op0vcqs114MaEeQkp1IP-102">
          <mxGeometry relative="1" as="geometry" />
        </mxCell>
        <mxCell id="Op0vcqs114MaEeQkp1IP-99" value="Extensions" style="whiteSpace=wrap;html=1;aspect=fixed;fillColor=#ffe6cc;strokeColor=#d79b00;" vertex="1" parent="1">
          <mxGeometry x="-270" y="960" width="87" height="87" as="geometry" />
        </mxCell>
        <mxCell id="Op0vcqs114MaEeQkp1IP-100" value="TaskID" style="ellipse;whiteSpace=wrap;html=1;fillColor=#dae8fc;strokeColor=#6c8ebf;" vertex="1" parent="1">
          <mxGeometry x="-430" y="980" width="126" height="40" as="geometry" />
        </mxCell>
        <mxCell id="Op0vcqs114MaEeQkp1IP-101" value="ExtensionID" style="ellipse;whiteSpace=wrap;html=1;fillColor=#dae8fc;strokeColor=#6c8ebf;" vertex="1" parent="1">
          <mxGeometry x="-420" y="1060" width="126" height="40" as="geometry" />
        </mxCell>
        <mxCell id="Op0vcqs114MaEeQkp1IP-102" value="Timestamp" style="ellipse;whiteSpace=wrap;html=1;fillColor=#dae8fc;strokeColor=#6c8ebf;" vertex="1" parent="1">
          <mxGeometry x="-300" y="1100" width="126" height="40" as="geometry" />
        </mxCell>
        <mxCell id="Op0vcqs114MaEeQkp1IP-104" style="rounded=0;orthogonalLoop=1;jettySize=auto;html=1;exitX=0;exitY=1;exitDx=0;exitDy=0;entryX=0.952;entryY=0.25;entryDx=0;entryDy=0;entryPerimeter=0;" edge="1" parent="1" source="Op0vcqs114MaEeQkp1IP-99" target="Op0vcqs114MaEeQkp1IP-101">
          <mxGeometry relative="1" as="geometry" />
        </mxCell>
        <mxCell id="Op0vcqs114MaEeQkp1IP-106" value="" style="endArrow=none;html=1;rounded=0;exitX=1;exitY=0;exitDx=0;exitDy=0;shape=link;width=-1.25;" edge="1" parent="1" source="Op0vcqs114MaEeQkp1IP-99">
          <mxGeometry width="50" height="50" relative="1" as="geometry">
            <mxPoint x="-240" y="1010" as="sourcePoint" />
            <mxPoint x="-10" y="790" as="targetPoint" />
          </mxGeometry>
        </mxCell>
        <mxCell id="Op0vcqs114MaEeQkp1IP-107" value="Some Sort of a File System&lt;div&gt;(Managed Service /GP File System)&lt;/div&gt;" style="text;html=1;align=center;verticalAlign=middle;resizable=0;points=[];autosize=1;strokeColor=none;fillColor=none;" vertex="1" parent="1">
          <mxGeometry x="-115" y="333" width="210" height="40" as="geometry" />
        </mxCell>
        <mxCell id="Op0vcqs114MaEeQkp1IP-125" style="rounded=0;orthogonalLoop=1;jettySize=auto;html=1;exitX=1;exitY=0.25;exitDx=0;exitDy=0;" edge="1" parent="1" source="Op0vcqs114MaEeQkp1IP-110" target="Op0vcqs114MaEeQkp1IP-113">
          <mxGeometry relative="1" as="geometry" />
        </mxCell>
        <mxCell id="Op0vcqs114MaEeQkp1IP-132" style="rounded=0;orthogonalLoop=1;jettySize=auto;html=1;exitX=1;exitY=0.75;exitDx=0;exitDy=0;entryX=0;entryY=0.5;entryDx=0;entryDy=0;" edge="1" parent="1" source="Op0vcqs114MaEeQkp1IP-110" target="Op0vcqs114MaEeQkp1IP-131">
          <mxGeometry relative="1" as="geometry" />
        </mxCell>
        <mxCell id="Op0vcqs114MaEeQkp1IP-149" style="rounded=0;orthogonalLoop=1;jettySize=auto;html=1;exitX=0.75;exitY=1;exitDx=0;exitDy=0;entryX=0;entryY=0;entryDx=0;entryDy=0;" edge="1" parent="1" source="Op0vcqs114MaEeQkp1IP-110" target="Op0vcqs114MaEeQkp1IP-148">
          <mxGeometry relative="1" as="geometry" />
        </mxCell>
        <mxCell id="Op0vcqs114MaEeQkp1IP-151" style="rounded=0;orthogonalLoop=1;jettySize=auto;html=1;exitX=1;exitY=0.5;exitDx=0;exitDy=0;entryX=0;entryY=0.5;entryDx=0;entryDy=0;shape=link;width=-2;" edge="1" parent="1" source="Op0vcqs114MaEeQkp1IP-110" target="Op0vcqs114MaEeQkp1IP-150">
          <mxGeometry relative="1" as="geometry" />
        </mxCell>
        <mxCell id="Op0vcqs114MaEeQkp1IP-110" value="Teams" style="whiteSpace=wrap;html=1;aspect=fixed;fillColor=#d5e8d4;strokeColor=#82b366;" vertex="1" parent="1">
          <mxGeometry x="880" y="650" width="80" height="80" as="geometry" />
        </mxCell>
        <mxCell id="Op0vcqs114MaEeQkp1IP-112" value="TeamID" style="ellipse;whiteSpace=wrap;html=1;fillColor=#dae8fc;strokeColor=#6c8ebf;" vertex="1" parent="1">
          <mxGeometry x="917" y="560" width="126" height="40" as="geometry" />
        </mxCell>
        <mxCell id="Op0vcqs114MaEeQkp1IP-113" value="TeamName" style="ellipse;whiteSpace=wrap;html=1;fillColor=#dae8fc;strokeColor=#6c8ebf;" vertex="1" parent="1">
          <mxGeometry x="990" y="630" width="126" height="40" as="geometry" />
        </mxCell>
        <mxCell id="Op0vcqs114MaEeQkp1IP-126" style="rounded=0;orthogonalLoop=1;jettySize=auto;html=1;exitX=1;exitY=0.5;exitDx=0;exitDy=0;" edge="1" parent="1" source="Op0vcqs114MaEeQkp1IP-115" target="Op0vcqs114MaEeQkp1IP-118">
          <mxGeometry relative="1" as="geometry" />
        </mxCell>
        <mxCell id="Op0vcqs114MaEeQkp1IP-140" style="rounded=0;orthogonalLoop=1;jettySize=auto;html=1;exitX=0.25;exitY=1;exitDx=0;exitDy=0;entryX=1;entryY=0;entryDx=0;entryDy=0;" edge="1" parent="1" source="Op0vcqs114MaEeQkp1IP-115" target="Op0vcqs114MaEeQkp1IP-139">
          <mxGeometry relative="1" as="geometry" />
        </mxCell>
        <mxCell id="Op0vcqs114MaEeQkp1IP-115" value="Project" style="whiteSpace=wrap;html=1;aspect=fixed;fillColor=#d5e8d4;strokeColor=#82b366;" vertex="1" parent="1">
          <mxGeometry x="660" y="860" width="80" height="80" as="geometry" />
        </mxCell>
        <mxCell id="Op0vcqs114MaEeQkp1IP-117" style="rounded=0;orthogonalLoop=1;jettySize=auto;html=1;exitX=0;exitY=1;exitDx=0;exitDy=0;entryX=1;entryY=0;entryDx=0;entryDy=0;shape=link;width=-2.1428571428571423;" edge="1" parent="1" source="Op0vcqs114MaEeQkp1IP-110" target="Op0vcqs114MaEeQkp1IP-115">
          <mxGeometry relative="1" as="geometry">
            <mxPoint x="370" y="740" as="sourcePoint" />
            <mxPoint x="670" y="870" as="targetPoint" />
          </mxGeometry>
        </mxCell>
        <mxCell id="Op0vcqs114MaEeQkp1IP-118" value="ProjectID" style="ellipse;whiteSpace=wrap;html=1;fillColor=#dae8fc;strokeColor=#6c8ebf;" vertex="1" parent="1">
          <mxGeometry x="780" y="920" width="126" height="40" as="geometry" />
        </mxCell>
        <mxCell id="Op0vcqs114MaEeQkp1IP-119" value="ProjectName" style="ellipse;whiteSpace=wrap;html=1;fillColor=#dae8fc;strokeColor=#6c8ebf;" vertex="1" parent="1">
          <mxGeometry x="706" y="980" width="126" height="40" as="geometry" />
        </mxCell>
        <mxCell id="Op0vcqs114MaEeQkp1IP-120" value="" style="endArrow=none;html=1;rounded=0;entryX=0;entryY=0;entryDx=0;entryDy=0;shape=link;width=-1.851851851851853;" edge="1" parent="1" target="Op0vcqs114MaEeQkp1IP-122">
          <mxGeometry width="50" height="50" relative="1" as="geometry">
            <mxPoint x="800" y="800" as="sourcePoint" />
            <mxPoint x="920" y="840" as="targetPoint" />
          </mxGeometry>
        </mxCell>
        <mxCell id="Op0vcqs114MaEeQkp1IP-136" style="rounded=0;orthogonalLoop=1;jettySize=auto;html=1;exitX=1;exitY=0.25;exitDx=0;exitDy=0;entryX=0;entryY=0.5;entryDx=0;entryDy=0;" edge="1" parent="1" source="Op0vcqs114MaEeQkp1IP-122" target="Op0vcqs114MaEeQkp1IP-134">
          <mxGeometry relative="1" as="geometry" />
        </mxCell>
        <mxCell id="Op0vcqs114MaEeQkp1IP-137" style="rounded=0;orthogonalLoop=1;jettySize=auto;html=1;exitX=1;exitY=0.75;exitDx=0;exitDy=0;entryX=0;entryY=0.5;entryDx=0;entryDy=0;" edge="1" parent="1" source="Op0vcqs114MaEeQkp1IP-122" target="Op0vcqs114MaEeQkp1IP-135">
          <mxGeometry relative="1" as="geometry" />
        </mxCell>
        <mxCell id="Op0vcqs114MaEeQkp1IP-122" value="AssignedTo" style="whiteSpace=wrap;html=1;aspect=fixed;fillColor=#ffe6cc;strokeColor=#d79b00;" vertex="1" parent="1">
          <mxGeometry x="970" y="870" width="80" height="80" as="geometry" />
        </mxCell>
        <mxCell id="Op0vcqs114MaEeQkp1IP-124" style="rounded=0;orthogonalLoop=1;jettySize=auto;html=1;exitX=0.75;exitY=0;exitDx=0;exitDy=0;entryX=0.38;entryY=0.926;entryDx=0;entryDy=0;entryPerimeter=0;" edge="1" parent="1" source="Op0vcqs114MaEeQkp1IP-110" target="Op0vcqs114MaEeQkp1IP-112">
          <mxGeometry relative="1" as="geometry" />
        </mxCell>
        <mxCell id="Op0vcqs114MaEeQkp1IP-127" style="rounded=0;orthogonalLoop=1;jettySize=auto;html=1;exitX=0.75;exitY=1;exitDx=0;exitDy=0;entryX=0.263;entryY=0.135;entryDx=0;entryDy=0;entryPerimeter=0;" edge="1" parent="1" source="Op0vcqs114MaEeQkp1IP-115" target="Op0vcqs114MaEeQkp1IP-119">
          <mxGeometry relative="1" as="geometry" />
        </mxCell>
        <mxCell id="Op0vcqs114MaEeQkp1IP-128" value="TeamID" style="ellipse;whiteSpace=wrap;html=1;fillColor=#dae8fc;strokeColor=#6c8ebf;" vertex="1" parent="1">
          <mxGeometry x="555" y="260" width="126" height="40" as="geometry" />
        </mxCell>
        <mxCell id="Op0vcqs114MaEeQkp1IP-131" value="MemberCount" style="ellipse;whiteSpace=wrap;html=1;fillColor=#dae8fc;strokeColor=#6c8ebf;" vertex="1" parent="1">
          <mxGeometry x="1010" y="700" width="126" height="40" as="geometry" />
        </mxCell>
        <mxCell id="Op0vcqs114MaEeQkp1IP-134" value="TeamID" style="ellipse;whiteSpace=wrap;html=1;fillColor=#dae8fc;strokeColor=#6c8ebf;" vertex="1" parent="1">
          <mxGeometry x="1079" y="845" width="126" height="40" as="geometry" />
        </mxCell>
        <mxCell id="Op0vcqs114MaEeQkp1IP-135" value="ProjectID" style="ellipse;whiteSpace=wrap;html=1;fillColor=#dae8fc;strokeColor=#6c8ebf;" vertex="1" parent="1">
          <mxGeometry x="1079" y="935" width="126" height="40" as="geometry" />
        </mxCell>
        <mxCell id="Op0vcqs114MaEeQkp1IP-139" value="StartDate" style="ellipse;whiteSpace=wrap;html=1;fillColor=#dae8fc;strokeColor=#6c8ebf;" vertex="1" parent="1">
          <mxGeometry x="560" y="970" width="126" height="40" as="geometry" />
        </mxCell>
        <mxCell id="Op0vcqs114MaEeQkp1IP-145" value="" style="group" vertex="1" connectable="0" parent="1">
          <mxGeometry x="406" y="650" width="170" height="60" as="geometry" />
        </mxCell>
        <mxCell id="Op0vcqs114MaEeQkp1IP-141" value="AssignedBy" style="ellipse;whiteSpace=wrap;html=1;fillColor=#dae8fc;strokeColor=#6c8ebf;" vertex="1" parent="Op0vcqs114MaEeQkp1IP-145">
          <mxGeometry y="20" width="126" height="40" as="geometry" />
        </mxCell>
        <mxCell id="Op0vcqs114MaEeQkp1IP-144" value="&lt;span style=&quot;color: rgb(0, 0, 0); font-family: Helvetica; font-size: 12px; font-style: normal; font-variant-ligatures: normal; font-variant-caps: normal; font-weight: 400; letter-spacing: normal; orphans: 2; text-align: center; text-indent: 0px; text-transform: none; widows: 2; word-spacing: 0px; -webkit-text-stroke-width: 0px; white-space: normal; background-color: rgb(251, 251, 251); text-decoration-thickness: initial; text-decoration-style: initial; text-decoration-color: initial; display: inline !important; float: none;&quot;&gt;MemberID&lt;/span&gt;" style="text;whiteSpace=wrap;html=1;" vertex="1" parent="Op0vcqs114MaEeQkp1IP-145">
          <mxGeometry x="80" width="90" height="40" as="geometry" />
        </mxCell>
        <mxCell id="Op0vcqs114MaEeQkp1IP-146" value="TO BE WORKED ON LATER" style="text;html=1;align=center;verticalAlign=middle;whiteSpace=wrap;rounded=0;fontSize=16;fontColor=#FF3333;" vertex="1" parent="1">
          <mxGeometry x="720" y="1030" width="134" height="30" as="geometry" />
        </mxCell>
        <mxCell id="Op0vcqs114MaEeQkp1IP-148" value="Department" style="ellipse;whiteSpace=wrap;html=1;fillColor=#dae8fc;strokeColor=#6c8ebf;" vertex="1" parent="1">
          <mxGeometry x="940" y="770" width="126" height="40" as="geometry" />
        </mxCell>
        <mxCell id="Op0vcqs114MaEeQkp1IP-155" style="rounded=0;orthogonalLoop=1;jettySize=auto;html=1;exitX=0;exitY=0;exitDx=0;exitDy=0;entryX=0.5;entryY=1;entryDx=0;entryDy=0;" edge="1" parent="1" source="Op0vcqs114MaEeQkp1IP-150" target="Op0vcqs114MaEeQkp1IP-152">
          <mxGeometry relative="1" as="geometry" />
        </mxCell>
        <mxCell id="Op0vcqs114MaEeQkp1IP-150" value="Departments" style="whiteSpace=wrap;html=1;aspect=fixed;fillColor=#ffe6cc;strokeColor=#d79b00;" vertex="1" parent="1">
          <mxGeometry x="1240" y="650" width="80" height="80" as="geometry" />
        </mxCell>
        <mxCell id="Op0vcqs114MaEeQkp1IP-152" value="DepartmentID" style="ellipse;whiteSpace=wrap;html=1;fillColor=#dae8fc;strokeColor=#6c8ebf;" vertex="1" parent="1">
          <mxGeometry x="1140" y="570" width="126" height="40" as="geometry" />
        </mxCell>
        <mxCell id="Op0vcqs114MaEeQkp1IP-153" value="DepartmentName" style="ellipse;whiteSpace=wrap;html=1;fillColor=#dae8fc;strokeColor=#6c8ebf;" vertex="1" parent="1">
          <mxGeometry x="1290" y="570" width="126" height="40" as="geometry" />
        </mxCell>
        <mxCell id="Op0vcqs114MaEeQkp1IP-156" style="rounded=0;orthogonalLoop=1;jettySize=auto;html=1;exitX=1;exitY=0;exitDx=0;exitDy=0;entryX=0.537;entryY=1.03;entryDx=0;entryDy=0;entryPerimeter=0;" edge="1" parent="1" source="Op0vcqs114MaEeQkp1IP-150" target="Op0vcqs114MaEeQkp1IP-153">
          <mxGeometry relative="1" as="geometry" />
        </mxCell>
        <mxCell id="Op0vcqs114MaEeQkp1IP-160" value="TaskCategory" style="ellipse;whiteSpace=wrap;html=1;fillColor=#dae8fc;strokeColor=#6c8ebf;" vertex="1" parent="1">
          <mxGeometry x="70" y="560" width="126" height="40" as="geometry" />
        </mxCell>
        <mxCell id="Op0vcqs114MaEeQkp1IP-167" style="rounded=0;orthogonalLoop=1;jettySize=auto;html=1;exitX=0;exitY=0.5;exitDx=0;exitDy=0;entryX=1;entryY=0.5;entryDx=0;entryDy=0;" edge="1" parent="1" source="Op0vcqs114MaEeQkp1IP-161" target="Op0vcqs114MaEeQkp1IP-165">
          <mxGeometry relative="1" as="geometry" />
        </mxCell>
        <mxCell id="Op0vcqs114MaEeQkp1IP-168" style="rounded=0;orthogonalLoop=1;jettySize=auto;html=1;exitX=0;exitY=0.5;exitDx=0;exitDy=0;" edge="1" parent="1" source="Op0vcqs114MaEeQkp1IP-161">
          <mxGeometry relative="1" as="geometry">
            <mxPoint x="-380" y="760" as="targetPoint" />
          </mxGeometry>
        </mxCell>
        <mxCell id="Op0vcqs114MaEeQkp1IP-161" value="TaskCategory" style="whiteSpace=wrap;html=1;aspect=fixed;fillColor=#ffe6cc;strokeColor=#d79b00;" vertex="1" parent="1">
          <mxGeometry x="-324" y="680" width="80" height="80" as="geometry" />
        </mxCell>
        <mxCell id="Op0vcqs114MaEeQkp1IP-162" value="CategoryName" style="ellipse;whiteSpace=wrap;html=1;fillColor=#dae8fc;strokeColor=#6c8ebf;" vertex="1" parent="1">
          <mxGeometry x="-510" y="740" width="126" height="40" as="geometry" />
        </mxCell>
        <mxCell id="Op0vcqs114MaEeQkp1IP-163" value="Urgent Calls &amp; Follow-Ups&#xa;Urgent Execution Works&#xa;Reminders for Team and Clients&#xa;Advance Planning" style="text;whiteSpace=wrap;" vertex="1" parent="1">
          <mxGeometry x="-630" y="690" width="200" height="80" as="geometry" />
        </mxCell>
        <mxCell id="Op0vcqs114MaEeQkp1IP-165" value="CategoryID" style="ellipse;whiteSpace=wrap;html=1;fillColor=#dae8fc;strokeColor=#6c8ebf;" vertex="1" parent="1">
          <mxGeometry x="-510" y="660" width="126" height="40" as="geometry" />
        </mxCell>
        <mxCell id="Op0vcqs114MaEeQkp1IP-177" value="" style="group" vertex="1" connectable="0" parent="1">
          <mxGeometry x="820" y="280" width="160" height="60" as="geometry" />
        </mxCell>
        <mxCell id="Op0vcqs114MaEeQkp1IP-172" value="Department" style="ellipse;whiteSpace=wrap;html=1;fillColor=#dae8fc;strokeColor=#6c8ebf;" vertex="1" parent="Op0vcqs114MaEeQkp1IP-177">
          <mxGeometry x="34" y="20" width="126" height="40" as="geometry" />
        </mxCell>
        <mxCell id="Op0vcqs114MaEeQkp1IP-174" value="&lt;span style=&quot;color: rgb(0, 0, 0); font-family: Helvetica; font-size: 12px; font-style: normal; font-variant-ligatures: normal; font-variant-caps: normal; font-weight: 400; letter-spacing: normal; orphans: 2; text-align: center; text-indent: 0px; text-transform: none; widows: 2; word-spacing: 0px; -webkit-text-stroke-width: 0px; white-space: normal; background-color: rgb(251, 251, 251); text-decoration-thickness: initial; text-decoration-style: initial; text-decoration-color: initial; display: inline !important; float: none;&quot;&gt;DepartmentID&lt;/span&gt;" style="text;whiteSpace=wrap;html=1;" vertex="1" parent="Op0vcqs114MaEeQkp1IP-177">
          <mxGeometry width="100" height="40" as="geometry" />
        </mxCell>
        <mxCell id="Op0vcqs114MaEeQkp1IP-178" value="Completed&#xa;Pending&#xa;Late&#xa;ExtensionRequested&#xa;" style="text;whiteSpace=wrap;" vertex="1" parent="1">
          <mxGeometry x="-430" y="470" width="200" height="80" as="geometry" />
        </mxCell>
        <mxCell id="Op0vcqs114MaEeQkp1IP-179" value="Low&#xa;Medium&#xa;High" style="text;whiteSpace=wrap;" vertex="1" parent="1">
          <mxGeometry x="-363" y="850" width="50" height="60" as="geometry" />
        </mxCell>
        <mxCell id="Op0vcqs114MaEeQkp1IP-181" value="" style="shape=link;html=1;rounded=0;exitX=1;exitY=0.5;exitDx=0;exitDy=0;width=1.9230769230769234;entryX=0.011;entryY=0.882;entryDx=0;entryDy=0;entryPerimeter=0;" edge="1" parent="1" source="Op0vcqs114MaEeQkp1IP-161" target="Op0vcqs114MaEeQkp1IP-19">
          <mxGeometry width="100" relative="1" as="geometry">
            <mxPoint x="-90" y="700" as="sourcePoint" />
            <mxPoint x="80" y="720" as="targetPoint" />
          </mxGeometry>
        </mxCell>
        <mxCell id="Op0vcqs114MaEeQkp1IP-182" value="Conceptual Design" style="text;html=1;align=center;verticalAlign=middle;whiteSpace=wrap;rounded=0;fontSize=26;fontColor=#00CC00;fontStyle=1;labelBorderColor=#007c00;labelBackgroundColor=default;" vertex="1" parent="1">
          <mxGeometry x="832" y="150" width="201" height="60" as="geometry" />
        </mxCell>
        <mxCell id="Op0vcqs114MaEeQkp1IP-188" style="rounded=0;orthogonalLoop=1;jettySize=auto;html=1;exitX=0.25;exitY=0;exitDx=0;exitDy=0;entryX=1;entryY=1;entryDx=0;entryDy=0;" edge="1" parent="1" source="Op0vcqs114MaEeQkp1IP-184" target="Op0vcqs114MaEeQkp1IP-187">
          <mxGeometry relative="1" as="geometry" />
        </mxCell>
        <mxCell id="Op0vcqs114MaEeQkp1IP-189" style="rounded=0;orthogonalLoop=1;jettySize=auto;html=1;exitX=0;exitY=0.25;exitDx=0;exitDy=0;entryX=1;entryY=0.5;entryDx=0;entryDy=0;" edge="1" parent="1" source="Op0vcqs114MaEeQkp1IP-184" target="Op0vcqs114MaEeQkp1IP-186">
          <mxGeometry relative="1" as="geometry" />
        </mxCell>
        <mxCell id="Op0vcqs114MaEeQkp1IP-184" value="Roles" style="whiteSpace=wrap;html=1;aspect=fixed;fillColor=#ffe6cc;strokeColor=#d79b00;" vertex="1" parent="1">
          <mxGeometry x="250" y="250" width="80" height="80" as="geometry" />
        </mxCell>
        <mxCell id="Op0vcqs114MaEeQkp1IP-186" value="RoleID" style="ellipse;whiteSpace=wrap;html=1;fillColor=#dae8fc;strokeColor=#6c8ebf;" vertex="1" parent="1">
          <mxGeometry x="90" y="240" width="126" height="40" as="geometry" />
        </mxCell>
        <mxCell id="Op0vcqs114MaEeQkp1IP-187" value="RoleName" style="ellipse;whiteSpace=wrap;html=1;fillColor=#dae8fc;strokeColor=#6c8ebf;" vertex="1" parent="1">
          <mxGeometry x="160" y="180" width="126" height="40" as="geometry" />
        </mxCell>
        <mxCell id="Op0vcqs114MaEeQkp1IP-190" value="RoleID" style="ellipse;whiteSpace=wrap;html=1;fillColor=#dae8fc;strokeColor=#6c8ebf;" vertex="1" parent="1">
          <mxGeometry x="600" y="320" width="126" height="40" as="geometry" />
        </mxCell>
        <mxCell id="Op0vcqs114MaEeQkp1IP-192" value="&lt;div style=&quot;&quot;&gt;&lt;span style=&quot;background-color: initial;&quot;&gt;Team&lt;/span&gt;&lt;/div&gt;&lt;div&gt;Admin&lt;/div&gt;" style="text;html=1;align=left;verticalAlign=middle;resizable=0;points=[];autosize=1;strokeColor=none;fillColor=none;" vertex="1" parent="1">
          <mxGeometry x="120" y="190" width="60" height="40" as="geometry" />
        </mxCell>
        <mxCell id="Op0vcqs114MaEeQkp1IP-214" style="rounded=0;orthogonalLoop=1;jettySize=auto;html=1;exitX=0.5;exitY=1;exitDx=0;exitDy=0;entryX=0.5;entryY=0;entryDx=0;entryDy=0;shape=link;width=-1.1999999999999993;" edge="1" parent="1" source="Op0vcqs114MaEeQkp1IP-193" target="Op0vcqs114MaEeQkp1IP-207">
          <mxGeometry relative="1" as="geometry" />
        </mxCell>
        <mxCell id="Op0vcqs114MaEeQkp1IP-215" style="rounded=0;orthogonalLoop=1;jettySize=auto;html=1;exitX=0.971;exitY=0.644;exitDx=0;exitDy=0;exitPerimeter=0;shape=link;width=1.1999999999999993;" edge="1" parent="1" source="Op0vcqs114MaEeQkp1IP-193" target="Op0vcqs114MaEeQkp1IP-194">
          <mxGeometry relative="1" as="geometry" />
        </mxCell>
        <mxCell id="Op0vcqs114MaEeQkp1IP-221" style="rounded=0;orthogonalLoop=1;jettySize=auto;html=1;exitX=0;exitY=0.25;exitDx=0;exitDy=0;entryX=1;entryY=0.5;entryDx=0;entryDy=0;" edge="1" parent="1" source="Op0vcqs114MaEeQkp1IP-193" target="Op0vcqs114MaEeQkp1IP-196">
          <mxGeometry relative="1" as="geometry" />
        </mxCell>
        <mxCell id="Op0vcqs114MaEeQkp1IP-222" style="rounded=0;orthogonalLoop=1;jettySize=auto;html=1;exitX=0;exitY=0.75;exitDx=0;exitDy=0;entryX=1;entryY=0.5;entryDx=0;entryDy=0;" edge="1" parent="1" source="Op0vcqs114MaEeQkp1IP-193" target="Op0vcqs114MaEeQkp1IP-204">
          <mxGeometry relative="1" as="geometry" />
        </mxCell>
        <mxCell id="Op0vcqs114MaEeQkp1IP-223" style="rounded=0;orthogonalLoop=1;jettySize=auto;html=1;exitX=0;exitY=1;exitDx=0;exitDy=0;entryX=1;entryY=0.5;entryDx=0;entryDy=0;" edge="1" parent="1" source="Op0vcqs114MaEeQkp1IP-193" target="Op0vcqs114MaEeQkp1IP-229">
          <mxGeometry relative="1" as="geometry" />
        </mxCell>
        <mxCell id="Op0vcqs114MaEeQkp1IP-225" style="rounded=0;orthogonalLoop=1;jettySize=auto;html=1;exitX=1;exitY=0.75;exitDx=0;exitDy=0;" edge="1" parent="1" source="Op0vcqs114MaEeQkp1IP-193" target="Op0vcqs114MaEeQkp1IP-198">
          <mxGeometry relative="1" as="geometry" />
        </mxCell>
        <mxCell id="Op0vcqs114MaEeQkp1IP-226" style="rounded=0;orthogonalLoop=1;jettySize=auto;html=1;exitX=1;exitY=0.25;exitDx=0;exitDy=0;" edge="1" parent="1" source="Op0vcqs114MaEeQkp1IP-193" target="Op0vcqs114MaEeQkp1IP-206">
          <mxGeometry relative="1" as="geometry" />
        </mxCell>
        <mxCell id="Op0vcqs114MaEeQkp1IP-230" style="rounded=0;orthogonalLoop=1;jettySize=auto;html=1;exitX=0.75;exitY=0;exitDx=0;exitDy=0;entryX=0;entryY=1;entryDx=0;entryDy=0;" edge="1" parent="1" source="Op0vcqs114MaEeQkp1IP-193" target="Op0vcqs114MaEeQkp1IP-211">
          <mxGeometry relative="1" as="geometry" />
        </mxCell>
        <mxCell id="Op0vcqs114MaEeQkp1IP-232" style="rounded=0;orthogonalLoop=1;jettySize=auto;html=1;exitX=0.25;exitY=1;exitDx=0;exitDy=0;entryX=1;entryY=0.5;entryDx=0;entryDy=0;" edge="1" parent="1" source="Op0vcqs114MaEeQkp1IP-193" target="Op0vcqs114MaEeQkp1IP-205">
          <mxGeometry relative="1" as="geometry" />
        </mxCell>
        <mxCell id="Op0vcqs114MaEeQkp1IP-235" style="rounded=0;orthogonalLoop=1;jettySize=auto;html=1;exitX=0.75;exitY=1;exitDx=0;exitDy=0;entryX=0;entryY=0.5;entryDx=0;entryDy=0;" edge="1" parent="1" source="Op0vcqs114MaEeQkp1IP-193" target="Op0vcqs114MaEeQkp1IP-234">
          <mxGeometry relative="1" as="geometry" />
        </mxCell>
        <mxCell id="Op0vcqs114MaEeQkp1IP-193" value="Task&lt;div&gt;Notifications&lt;/div&gt;" style="whiteSpace=wrap;html=1;aspect=fixed;fillColor=#d5e8d4;strokeColor=#82b366;" vertex="1" parent="1">
          <mxGeometry x="-205" y="1260" width="80" height="80" as="geometry" />
        </mxCell>
        <mxCell id="Op0vcqs114MaEeQkp1IP-218" style="rounded=0;orthogonalLoop=1;jettySize=auto;html=1;exitX=0.75;exitY=1;exitDx=0;exitDy=0;" edge="1" parent="1" source="Op0vcqs114MaEeQkp1IP-194" target="Op0vcqs114MaEeQkp1IP-199">
          <mxGeometry relative="1" as="geometry" />
        </mxCell>
        <mxCell id="Op0vcqs114MaEeQkp1IP-219" style="rounded=0;orthogonalLoop=1;jettySize=auto;html=1;exitX=1;exitY=0.75;exitDx=0;exitDy=0;entryX=0;entryY=0.5;entryDx=0;entryDy=0;" edge="1" parent="1" source="Op0vcqs114MaEeQkp1IP-194" target="Op0vcqs114MaEeQkp1IP-202">
          <mxGeometry relative="1" as="geometry" />
        </mxCell>
        <mxCell id="Op0vcqs114MaEeQkp1IP-220" style="rounded=0;orthogonalLoop=1;jettySize=auto;html=1;exitX=1;exitY=0.25;exitDx=0;exitDy=0;" edge="1" parent="1" source="Op0vcqs114MaEeQkp1IP-194" target="Op0vcqs114MaEeQkp1IP-203">
          <mxGeometry relative="1" as="geometry" />
        </mxCell>
        <mxCell id="Op0vcqs114MaEeQkp1IP-194" value="Notification&lt;div&gt;Type&lt;/div&gt;" style="whiteSpace=wrap;html=1;aspect=fixed;fillColor=#ffe6cc;strokeColor=#d79b00;" vertex="1" parent="1">
          <mxGeometry x="104" y="1270" width="80" height="80" as="geometry" />
        </mxCell>
        <mxCell id="Op0vcqs114MaEeQkp1IP-196" value="NotificationID" style="ellipse;whiteSpace=wrap;html=1;fillColor=#dae8fc;strokeColor=#6c8ebf;" vertex="1" parent="1">
          <mxGeometry x="-385" y="1230" width="126" height="40" as="geometry" />
        </mxCell>
        <mxCell id="Op0vcqs114MaEeQkp1IP-197" value="NotificationDesc" style="ellipse;whiteSpace=wrap;html=1;fillColor=#dae8fc;strokeColor=#6c8ebf;" vertex="1" parent="1">
          <mxGeometry x="-81" y="1370" width="126" height="40" as="geometry" />
        </mxCell>
        <mxCell id="Op0vcqs114MaEeQkp1IP-198" value="NotificationType" style="ellipse;whiteSpace=wrap;html=1;fillColor=#dae8fc;strokeColor=#6c8ebf;" vertex="1" parent="1">
          <mxGeometry x="-45" y="1320" width="126" height="40" as="geometry" />
        </mxCell>
        <mxCell id="Op0vcqs114MaEeQkp1IP-201" value="" style="group" vertex="1" connectable="0" parent="1">
          <mxGeometry x="90" y="1400" width="140" height="70" as="geometry" />
        </mxCell>
        <mxCell id="Op0vcqs114MaEeQkp1IP-199" value="Prioriry" style="ellipse;whiteSpace=wrap;html=1;fillColor=#dae8fc;strokeColor=#6c8ebf;" vertex="1" parent="Op0vcqs114MaEeQkp1IP-201">
          <mxGeometry x="14" width="126" height="40" as="geometry" />
        </mxCell>
        <mxCell id="Op0vcqs114MaEeQkp1IP-200" value="PriorityID" style="text;html=1;align=center;verticalAlign=middle;resizable=0;points=[];autosize=1;strokeColor=none;fillColor=none;" vertex="1" parent="Op0vcqs114MaEeQkp1IP-201">
          <mxGeometry y="40" width="70" height="30" as="geometry" />
        </mxCell>
        <mxCell id="Op0vcqs114MaEeQkp1IP-202" value="TypeDesc" style="ellipse;whiteSpace=wrap;html=1;fillColor=#dae8fc;strokeColor=#6c8ebf;" vertex="1" parent="1">
          <mxGeometry x="234" y="1340" width="126" height="40" as="geometry" />
        </mxCell>
        <mxCell id="Op0vcqs114MaEeQkp1IP-203" value="TypeID" style="ellipse;whiteSpace=wrap;html=1;fillColor=#dae8fc;strokeColor=#6c8ebf;" vertex="1" parent="1">
          <mxGeometry x="228" y="1270" width="126" height="40" as="geometry" />
        </mxCell>
        <mxCell id="Op0vcqs114MaEeQkp1IP-204" value="TaskID" style="ellipse;whiteSpace=wrap;html=1;fillColor=#dae8fc;strokeColor=#6c8ebf;" vertex="1" parent="1">
          <mxGeometry x="-431" y="1280" width="126" height="40" as="geometry" />
        </mxCell>
        <mxCell id="Op0vcqs114MaEeQkp1IP-205" value="Timestamp" style="ellipse;whiteSpace=wrap;html=1;fillColor=#dae8fc;strokeColor=#6c8ebf;" vertex="1" parent="1">
          <mxGeometry x="-375" y="1400" width="126" height="40" as="geometry" />
        </mxCell>
        <mxCell id="Op0vcqs114MaEeQkp1IP-206" value="Status" style="ellipse;whiteSpace=wrap;html=1;fillColor=#dae8fc;strokeColor=#6c8ebf;" vertex="1" parent="1">
          <mxGeometry x="-78" y="1249" width="126" height="40" as="geometry" />
        </mxCell>
        <mxCell id="Op0vcqs114MaEeQkp1IP-216" style="rounded=0;orthogonalLoop=1;jettySize=auto;html=1;exitX=0.5;exitY=1;exitDx=0;exitDy=0;entryX=0.5;entryY=0;entryDx=0;entryDy=0;" edge="1" parent="1" source="Op0vcqs114MaEeQkp1IP-207" target="Op0vcqs114MaEeQkp1IP-209">
          <mxGeometry relative="1" as="geometry" />
        </mxCell>
        <mxCell id="Op0vcqs114MaEeQkp1IP-217" style="rounded=0;orthogonalLoop=1;jettySize=auto;html=1;exitX=0.5;exitY=1;exitDx=0;exitDy=0;" edge="1" parent="1" source="Op0vcqs114MaEeQkp1IP-207" target="Op0vcqs114MaEeQkp1IP-208">
          <mxGeometry relative="1" as="geometry" />
        </mxCell>
        <mxCell id="Op0vcqs114MaEeQkp1IP-207" value="Notification&lt;div&gt;Status&lt;/div&gt;" style="whiteSpace=wrap;html=1;aspect=fixed;fillColor=#ffe6cc;strokeColor=#d79b00;" vertex="1" parent="1">
          <mxGeometry x="-205" y="1430" width="80" height="80" as="geometry" />
        </mxCell>
        <mxCell id="Op0vcqs114MaEeQkp1IP-208" value="StatusID" style="ellipse;whiteSpace=wrap;html=1;fillColor=#dae8fc;strokeColor=#6c8ebf;" vertex="1" parent="1">
          <mxGeometry x="-147" y="1565" width="126" height="40" as="geometry" />
        </mxCell>
        <mxCell id="Op0vcqs114MaEeQkp1IP-209" value="StatusDesc" style="ellipse;whiteSpace=wrap;html=1;fillColor=#dae8fc;strokeColor=#6c8ebf;" vertex="1" parent="1">
          <mxGeometry x="-305" y="1565" width="126" height="40" as="geometry" />
        </mxCell>
        <mxCell id="Op0vcqs114MaEeQkp1IP-211" value="ReadTimestamp" style="ellipse;whiteSpace=wrap;html=1;fillColor=#dae8fc;strokeColor=#6c8ebf;" vertex="1" parent="1">
          <mxGeometry x="-145" y="1200" width="126" height="40" as="geometry" />
        </mxCell>
        <mxCell id="Op0vcqs114MaEeQkp1IP-213" value="" style="shape=link;html=1;rounded=0;width=1.4285714285714288;entryX=0.5;entryY=0;entryDx=0;entryDy=0;" edge="1" parent="1" target="Op0vcqs114MaEeQkp1IP-193">
          <mxGeometry width="100" relative="1" as="geometry">
            <mxPoint x="-160" y="940" as="sourcePoint" />
            <mxPoint x="-160" y="1180" as="targetPoint" />
          </mxGeometry>
        </mxCell>
        <mxCell id="Op0vcqs114MaEeQkp1IP-224" style="rounded=0;orthogonalLoop=1;jettySize=auto;html=1;exitX=1;exitY=1;exitDx=0;exitDy=0;entryX=0.184;entryY=0.083;entryDx=0;entryDy=0;entryPerimeter=0;" edge="1" parent="1" source="Op0vcqs114MaEeQkp1IP-193" target="Op0vcqs114MaEeQkp1IP-197">
          <mxGeometry relative="1" as="geometry" />
        </mxCell>
        <mxCell id="Op0vcqs114MaEeQkp1IP-227" value="Deadline Reached&#xa;Deadline Almost Reached&#xa;Task Update&#xa;Request&#xa;Request Approval&#xa;&#xa;" style="text;whiteSpace=wrap;" vertex="1" parent="1">
          <mxGeometry x="125" y="1190" width="150" height="80" as="geometry" />
        </mxCell>
        <mxCell id="Op0vcqs114MaEeQkp1IP-228" value="Sent&#xa;Recieved&#xa;Read&#xa;Action Taken" style="text;whiteSpace=wrap;" vertex="1" parent="1">
          <mxGeometry x="-275" y="1460" width="87" height="80" as="geometry" />
        </mxCell>
        <mxCell id="Op0vcqs114MaEeQkp1IP-233" value="" style="group" vertex="1" connectable="0" parent="1">
          <mxGeometry x="-448" y="1340" width="156" height="60" as="geometry" />
        </mxCell>
        <mxCell id="Op0vcqs114MaEeQkp1IP-229" value="Sender" style="ellipse;whiteSpace=wrap;html=1;fillColor=#dae8fc;strokeColor=#6c8ebf;" vertex="1" parent="Op0vcqs114MaEeQkp1IP-233">
          <mxGeometry x="30" width="126" height="40" as="geometry" />
        </mxCell>
        <mxCell id="Op0vcqs114MaEeQkp1IP-231" value="MemberID" style="text;html=1;align=center;verticalAlign=middle;resizable=0;points=[];autosize=1;strokeColor=none;fillColor=none;" vertex="1" parent="Op0vcqs114MaEeQkp1IP-233">
          <mxGeometry y="30" width="80" height="30" as="geometry" />
        </mxCell>
        <mxCell id="Op0vcqs114MaEeQkp1IP-237" value="" style="group" vertex="1" connectable="0" parent="1">
          <mxGeometry x="-111" y="1420" width="150" height="65" as="geometry" />
        </mxCell>
        <mxCell id="Op0vcqs114MaEeQkp1IP-234" value="Reciever" style="ellipse;whiteSpace=wrap;html=1;fillColor=#dae8fc;strokeColor=#6c8ebf;" vertex="1" parent="Op0vcqs114MaEeQkp1IP-237">
          <mxGeometry width="126" height="40" as="geometry" />
        </mxCell>
        <mxCell id="Op0vcqs114MaEeQkp1IP-236" value="MemberID/TeamID" style="text;html=1;align=center;verticalAlign=middle;resizable=0;points=[];autosize=1;strokeColor=none;fillColor=none;" vertex="1" parent="Op0vcqs114MaEeQkp1IP-237">
          <mxGeometry x="30" y="35" width="120" height="30" as="geometry" />
        </mxCell>
      </root>
    </mxGraphModel>
  </diagram>
</mxfile>
